<?xml version="1.0" encoding="utf-8"?>
<!-- Generator: Adobe Illustrator 26.5.0, SVG Export Plug-In . SVG Version: 6.00 Build 0)  -->
<svg version="1.1" xmlns="http://www.w3.org/2000/svg" xmlns:xlink="http://www.w3.org/1999/xlink" x="0px" y="0px"
	 viewBox="0 0 611 646" style="enable-background:new 0 0 611 646;" xml:space="preserve">
<style type="text/css">
	.st0{display:none;}
	.st1{display:inline;fill:#2BA9E0;}
	.st2{fill:#009CDE;}
</style>
<g id="Old8Logo" xmlns:svg="http://www.w3.org/2000/svg" class="st0">
	<path class="st1" d="M161.1,607.1c-25.2-29.6-40.4-67.7-40.4-109.5c0-87,66.2-158.7,151.6-168.6c-14.6-21-23.3-46.4-23.3-73.7
		c0-71.9,59-129.9,131.7-129.9c6.1,0,11.9,0.4,17.6,1.1c-43-36.7-86.1-73.9-120-114.5c17.2,178.1-164.3,113.4-231.6,277.7
		C1.9,399.7,42.5,535.8,161.1,607.1z M304.3,255.3c0,41.7,34.3,75.4,76.4,75.4s76.6-33.9,76.6-75.4c0-41.7-34.3-75.4-76.4-75.4
		S304.3,213.5,304.3,255.3z M417.2,380.1c29.6,30.5,47.8,71.9,47.8,117.5c0,57.8-29.2,108.7-73.7,139.4
		c82.5-25.1,150.7-86.3,181.2-160.4c42.3-102.5,2.8-179.6-63.1-249.6c2.1,9,3.2,18.5,3.2,28.1C512.4,314.6,472.2,364.6,417.2,380.1z
		 M292.9,399c-55.2,0-99.9,44.2-99.9,98.6s44.7,98.6,99.9,98.6s99.9-44.2,99.9-98.6S348,399,292.9,399L292.9,399z"/>
</g>
<g id="New_9_Logo">
	<g>
		<g id="Livello_2_00000036233351158668161790000015915649160891321010_">
			<g id="Livello_1-2_00000003075533166538060560000014918119749551768973_">
				<path class="st2" d="M394.5,158.4c-39.8-39.7-77.7-77.7-89-120.4c-11.1,42.7-49.3,80.7-89.1,120.4
					C156.8,218,89.2,285.5,89.2,386.9c-2.6,119.5,92.1,218.4,211.6,221c119.5,2.6,218.4-92.1,221-211.6c0.1-3.1,0.1-6.3,0-9.4
					C521.8,285.5,454.2,218,394.5,158.4z M200.5,406.6c-6.6,8.3-12.3,17.3-16.9,26.9c-0.7,1.5-2.1,2.7-3.7,3.1H178
					c-4.8,0-10.3-9.4-10.3-9.4l0,0c-1.4-2.3-2.8-4.6-4.1-7.1l-0.9-1.9c-12.5-28.6-1.6-69.4-1.6-69.4l0,0
					c5.4-19.9,14.1-38.6,25.9-55.5c7.2-10.7,15-21,23.4-30.8l10.3,10.3l48.4,49.5c1.9,2.1,1.9,5.3,0,7.4l-50.6,56.1l0,0L200.5,406.6
					z M308,548.4c-41.3-0.2-74.6-33.9-74.4-75.3c0.1-18.2,6.8-35.7,19-49.3c15.8-18.8,35.1-37.3,56-61.6
					c24.8,26.5,41.1,44.6,57,64.6c1.2,1.5,2.3,3.2,3.3,4.9c8.7,12.4,13.4,27.2,13.3,42.3c0.1,41-33,74.3-74,74.4
					C308.2,548.4,308.1,548.4,308,548.4z M448.4,429.4L448.4,429.4c-1,3.1-3.6,5.4-6.9,6h-1.4c-2.9-1-5.4-3-7-5.6l0,0
					c-13-19.5-27.7-37.7-43.9-54.5l-19.8-20.5l-65.8-68.2c-13.8-12.8-27-26.3-39.4-40.4c-0.3-0.5-0.6-1.1-1-1.5
					c-2.2-3.1-4-6.6-5.2-10.3c0-0.6,0-1.3,0-1.9c-1.9-11.3,2-22.8,10.3-30.8c12.7-12.7,25.6-25.6,37.7-38.9
					c13.3,14.8,27.6,28.9,41.7,43l0,0c28.7,26.7,54.6,56.2,77.5,88.1c19.3,27.3,29.8,59.9,30.1,93.3
					C454.9,401.4,452.7,415.7,448.4,429.4z"/>
			</g>
		</g>
	</g>
</g>
</svg>
