<?xml version="1.0" encoding="utf-8"?>
<!-- Generator: Adobe Illustrator 26.5.0, SVG Export Plug-In . SVG Version: 6.00 Build 0)  -->
<svg version="1.1" xmlns="http://www.w3.org/2000/svg" xmlns:xlink="http://www.w3.org/1999/xlink" x="0px" y="0px"
	 viewBox="0 0 381 416" style="enable-background:new 0 0 381 416;" xml:space="preserve">
<style type="text/css">
	.st0{display:none;}
	.st1{display:inline;}
	.st2{fill:#ACACAC;}
	.st3{clip-path:url(#SVGID_00000106120070706488089860000015938185714278325675_);}
	.st4{clip-path:url(#SVGID_00000165946224905878865800000012703585047294371225_);fill:#009CDE;}
</style>
<g id="Old" class="st0">
	<g class="st1">
		<g>
			<path class="st2" d="M179.3,229.4c-29.1,0-52.7,23.6-52.7,52.7c0,29.1,23.6,52.7,52.7,52.7s52.7-23.6,52.7-52.7
				C232,253,208.4,229.4,179.3,229.4z"/>
		</g>
		<g>
			<path class="st2" d="M244.9,219.3c15.6,16.3,25.2,38.4,25.2,62.8c0,30.9-15.4,58.1-38.9,74.5c43.5-13.4,79.5-46.1,95.6-85.7
				c22.3-54.8,1.5-96-33.3-133.4c1.1,4.8,1.7,9.9,1.7,15C295.1,184.3,273.9,211,244.9,219.3z"/>
		</g>
		<g>
			<path class="st2" d="M185.3,152.6c0,22.3,18.1,40.3,40.3,40.3c22.2,0,40.4-18.1,40.4-40.3c0-22.3-18.1-40.3-40.3-40.3
				S185.3,130.3,185.3,152.6z"/>
		</g>
		<g>
			<path class="st2" d="M109.8,340.6c-13.3-15.8-21.3-36.2-21.3-58.5c0-46.5,34.9-84.8,80-90.1c-7.7-11.2-12.3-24.8-12.3-39.4
				c0-38.4,31.1-69.4,69.5-69.4c3.2,0,6.3,0.2,9.3,0.6c-22.7-19.6-45.4-39.5-63.3-61.2C180.8,117.8,85,83.2,49.5,171
				C25.8,229.8,47.2,302.5,109.8,340.6z"/>
		</g>
	</g>
</g>
<g id="Drupal_9">
	<g>
		<g>
			<defs>
				<rect id="SVGID_1_" y="7" width="380.2" height="402"/>
			</defs>
			<clipPath id="SVGID_00000008860065828416581060000002717043318258673330_">
				<use xlink:href="#SVGID_1_"  style="overflow:visible;"/>
			</clipPath>
			<g style="clip-path:url(#SVGID_00000008860065828416581060000002717043318258673330_);">
				<defs>
					<rect id="SVGID_00000132048201867915252690000016372903715437577355_" y="7" width="380.2" height="402"/>
				</defs>
				<clipPath id="SVGID_00000036235429908033627210000002346778511151810945_">
					<use xlink:href="#SVGID_00000132048201867915252690000016372903715437577355_"  style="overflow:visible;"/>
				</clipPath>
			</g>
			<g style="clip-path:url(#SVGID_00000008860065828416581060000002717043318258673330_);">
				<defs>
					<rect id="SVGID_00000160869922592796730750000005883325259400008877_" y="7" width="380.2" height="402"/>
				</defs>
				<clipPath id="SVGID_00000044163579903236985520000017210119738097855423_">
					<use xlink:href="#SVGID_00000160869922592796730750000005883325259400008877_"  style="overflow:visible;"/>
				</clipPath>
				<path style="clip-path:url(#SVGID_00000044163579903236985520000017210119738097855423_);fill:#009CDE;" d="M245.5,105.6
					c-24.8-24.7-48.3-48.3-55.4-74.9c-6.9,26.6-30.7,50.2-55.4,74.9c-37.1,37.1-79.2,79.1-79.2,142.2
					c-1.6,74.3,57.3,135.9,131.7,137.5c74.3,1.6,135.9-57.3,137.5-131.7c0-2,0-3.9,0-5.9C324.7,184.7,282.6,142.7,245.5,105.6
					 M124.7,260.1c-4.1,5.2-7.6,10.8-10.5,16.7c-0.4,1-1.3,1.7-2.3,1.9h-1.2c-3,0-6.4-5.9-6.4-5.9c-0.9-1.4-1.7-2.9-2.6-4.4
					l-0.6-1.2c-7.8-17.8-1-43.2-1-43.2c3.3-12.4,8.8-24,16.1-34.6c4.5-6.7,9.3-13.1,14.6-19.2l6.4,6.4l30.1,30.8
					c1.2,1.3,1.2,3.3,0,4.6L135.9,247L124.7,260.1z M191.7,348.3c-25.7-0.1-46.4-21.1-46.3-46.8c0.1-11.3,4.3-22.2,11.8-30.7
					c9.8-11.7,21.8-23.2,34.9-38.3c15.5,16.5,25.5,27.8,35.4,40.2c0.8,1,1.5,2,2,3.1c5.4,7.7,8.3,16.9,8.3,26.3
					c0.1,25.5-20.5,46.2-46,46.3C191.8,348.3,191.7,348.3,191.7,348.3 M279.1,274.2L279.1,274.2c-0.6,1.9-2.3,3.4-4.3,3.7h-0.9
					c-1.8-0.6-3.4-1.8-4.3-3.5c-8.1-12.1-17.2-23.5-27.3-33.9l-12.3-12.8l-40.9-42.5c-8.6-8-16.8-16.4-24.5-25.2
					c-0.2-0.3-0.4-0.7-0.6-1c-1.4-2-2.5-4.1-3.3-6.4v-1.2c-1.2-7,1.2-14.2,6.4-19.2c7.9-7.9,15.9-15.9,23.4-24.2
					c8.3,9.2,17.2,18,25.9,26.8c17.9,16.6,34,35,48.2,54.8c12,17,18.5,37.3,18.7,58.1C283.1,256.8,281.7,265.7,279.1,274.2"/>
			</g>
		</g>
	</g>
</g>
</svg>
